<?xml version="1.0" encoding="UTF-8"?>
<svg version="1.1" xmlns="http://www.w3.org/2000/svg" width="1024" height="1024">
<path d="M0 0 C337.92 0 675.84 0 1024 0 C1024 337.92 1024 675.84 1024 1024 C686.08 1024 348.16 1024 0 1024 C0 686.08 0 348.16 0 0 Z " fill="#ECE8E3" transform="translate(0,0)"/>
<path d="M0 0 C12.83893197 9.99014839 21.53710234 24.75306899 24.34960938 40.81152344 C26.06871238 61.95047161 23.6888541 82.91454455 9.49072266 99.70117188 C-0.02192759 110.28562301 -13.74798673 118.92185563 -28.23071289 120.00439453 C-44.64324709 120.48767608 -56.85706631 120.18013663 -69.65039062 108.81152344 C-70.97039062 107.49152344 -72.29039062 106.17152344 -73.65039062 104.81152344 C-73.98039062 124.28152344 -74.31039062 143.75152344 -74.65039062 163.81152344 C-80.23976562 163.83214844 -85.82914063 163.85277344 -91.58789062 163.87402344 C-93.35382568 163.88312744 -95.11976074 163.89223145 -96.93920898 163.90161133 C-98.33121667 163.90453058 -99.72322521 163.90707911 -101.11523438 163.90917969 C-101.8442395 163.91429565 -102.57324463 163.91941162 -103.32434082 163.92468262 C-105.10009139 163.92499355 -106.87573271 163.87380859 -108.65039062 163.81152344 C-109.65039062 162.81152344 -109.65039062 162.81152344 -109.77343845 160.03352261 C-109.77251666 158.78080594 -109.77159487 157.52808928 -109.77064514 156.2374115 C-109.77149957 155.54235317 -109.77235399 154.84729485 -109.77323431 154.13117415 C-109.77489111 151.78493358 -109.76936449 149.43876336 -109.76391602 147.0925293 C-109.76363416 145.41752626 -109.76379184 143.7425231 -109.76435852 142.06752014 C-109.76464656 137.50573065 -109.75874876 132.94396721 -109.75178456 128.38218379 C-109.74555213 123.62023343 -109.74494731 118.85828254 -109.74375916 114.09632874 C-109.74064551 105.07236778 -109.73243168 96.04841887 -109.72240967 87.02446324 C-109.71124955 76.75377857 -109.70573834 66.48309335 -109.70071423 56.21240413 C-109.69024909 35.0787705 -109.67264902 13.94514772 -109.65039062 -7.18847656 C-104.96899809 -7.21312944 -100.28764303 -7.23131395 -95.60620117 -7.2434082 C-94.01244448 -7.24844814 -92.41869243 -7.25528006 -90.82495117 -7.26391602 C-88.5388881 -7.27599655 -86.25288595 -7.28170811 -83.96679688 -7.28613281 C-83.25012344 -7.2912941 -82.53345001 -7.29645538 -81.7950592 -7.30177307 C-80.0797539 -7.30196919 -78.36457796 -7.25039664 -76.65039062 -7.18847656 C-74.83923107 -5.37731701 -75.26839614 -2.57569429 -75.08789062 -0.12597656 C-75.00410156 0.97875 -74.9203125 2.08347656 -74.83398438 3.22167969 C-74.77339844 4.07632812 -74.7128125 4.93097656 -74.65039062 5.81152344 C-74.26109375 5.30363281 -73.87179688 4.79574219 -73.47070312 4.27246094 C-55.78431988 -17.48912582 -21.35975792 -15.38155348 0 0 Z " fill="#132C39" transform="translate(210.650390625,455.1884765625)"/>
<path d="M0 0 C1.19383301 0.00829834 2.38766602 0.01659668 3.61767578 0.02514648 C22.15774926 0.37950376 37.8838516 6.38490353 51.15234375 19.55078125 C65.52149489 35.14373675 68.67294727 53.54184883 67.95605469 73.91650391 C67.03826896 90.03394516 57.87588915 105.30104838 46.0625 115.90625 C32.69605376 126.57096775 18.37786168 130.80117605 1.5 130.75 C0.44876953 130.76611328 -0.60246094 130.78222656 -1.68554688 130.79882812 C-12.19651339 130.80528846 -21.88325932 128.68689045 -31.25 123.875 C-31.92554932 123.52840332 -32.60109863 123.18180664 -33.29711914 122.82470703 C-47.56064899 115.17342079 -57.35270058 102.40003739 -62.43359375 87.1328125 C-62.68238281 86.24335937 -62.93117188 85.35390625 -63.1875 84.4375 C-63.54070312 83.23867188 -63.89390625 82.03984375 -64.2578125 80.8046875 C-68.53601373 63.28521726 -65.01348226 44.40368466 -55.97265625 29.02734375 C-42.82937746 9.95952354 -22.95112815 -0.20512268 0 0 Z " fill="#122B39" transform="translate(400.1875,444.5625)"/>
<path d="M0 0 C11.08175082 9.29269073 18.77471385 23.04103127 20.875 37.375 C21.13719151 41.35921557 21.15548942 45.32092681 21.125 49.3125 C21.13660156 50.87194336 21.13660156 50.87194336 21.1484375 52.46289062 C21.14585937 53.45353516 21.14328125 54.44417969 21.140625 55.46484375 C21.13836914 56.36066162 21.13611328 57.25647949 21.13378906 58.17944336 C20.875 60.375 20.875 60.375 18.875 62.375 C16.13395231 62.56306596 13.49475713 62.62678404 10.75341797 62.60205078 C9.91431885 62.60234283 9.07521973 62.60263489 8.21069336 62.60293579 C5.42942056 62.60153933 2.64841366 62.58596335 -0.1328125 62.5703125 C-2.05809381 62.56658349 -3.98337701 62.56373599 -5.90866089 62.56173706 C-10.9820477 62.55409176 -16.05532044 62.5344356 -21.12866211 62.5123291 C-26.30320696 62.49188995 -31.47777019 62.48273948 -36.65234375 62.47265625 C-46.80994602 62.45119054 -56.96746353 62.41704381 -67.125 62.375 C-66.52032982 64.45136121 -65.9065838 66.52508071 -65.2890625 68.59765625 C-64.9482666 69.75273682 -64.6074707 70.90781738 -64.25634766 72.09790039 C-61.20024583 80.95030755 -55.32291553 85.29720725 -47.125 89.375 C-38.37410978 92.29196341 -26.43896353 91.15279762 -18.125 87.375 C-13.68490462 85.07105516 -9.46578683 82.85705748 -6.0859375 79.12109375 C-4.125 77.375 -4.125 77.375 -2.140625 77.3671875 C0.49171833 78.68335916 2.10679812 80.35838289 4.125 82.5 C8.18574649 86.70889976 12.41504749 90.59558521 16.875 94.375 C14.15762956 102.90037649 5.57505566 107.65048266 -1.95556641 111.70776367 C-18.59999978 120.19296621 -37.47667218 122.13471952 -55.6875 117.5390625 C-71.86825901 112.05966911 -85.38745363 102.57885758 -93.78125 87.375 C-101.96024075 70.69627375 -104.29737861 50.46298611 -99.22265625 32.3828125 C-93.12950695 15.68628238 -82.85434462 1.2566647 -66.41015625 -6.4453125 C-44.06196615 -16.17565979 -19.80112239 -14.70083329 0 0 Z " fill="#122B38" transform="translate(669.125,456.625)"/>
<path d="M0 0 C12.04557743 7.36239633 19.34072052 17.27363317 22.67767334 31.00311279 C24.01238255 39.0122663 23.67413767 47.13783433 23.60546875 55.234375 C23.59986283 57.19020256 23.59559745 59.14603437 23.59260559 61.10186768 C23.58123522 66.21134385 23.55183655 71.32055793 23.51849365 76.42993164 C23.48762307 81.65898088 23.47406419 86.8880731 23.45898438 92.1171875 C23.42695831 102.34907251 23.37585811 112.58076433 23.3125 122.8125 C18.63110746 122.83715288 13.94975241 122.85533739 9.26831055 122.86743164 C7.67455386 122.87247157 6.08080181 122.8793035 4.48706055 122.88793945 C2.20099747 122.90001999 -0.08500467 122.90573155 -2.37109375 122.91015625 C-3.08776718 122.91531754 -3.80444061 122.92047882 -4.54283142 122.92579651 C-6.25813672 122.92599263 -7.97331266 122.87442007 -9.6875 122.8125 C-11.35284693 121.14715307 -10.81693293 119.12626667 -10.83094788 116.90153503 C-10.83041916 116.19926285 -10.82989044 115.49699066 -10.8293457 114.7734375 C-10.83282013 114.03672318 -10.83629456 113.30000885 -10.83987427 112.54096985 C-10.84724615 110.93457805 -10.85258386 109.32817596 -10.85616493 107.72177124 C-10.86332039 105.17356089 -10.87898334 102.62554424 -10.89750671 100.07739258 C-10.94999502 92.82978094 -10.99788321 85.58226992 -11.01342773 78.33447266 C-11.02355254 73.90458246 -11.05299938 69.47517145 -11.09474754 65.04547119 C-11.10700827 63.36154824 -11.11218786 61.67755741 -11.10994911 59.99359131 C-11.01085568 47.36851072 -11.01085568 47.36851072 -15.6875 35.8125 C-16.22375 34.905 -16.76 33.9975 -17.3125 33.0625 C-22.37470477 28.26672706 -28.19125167 25.53483148 -35.1875 25.1875 C-41.97726582 25.55243791 -47.75344048 27.85414185 -52.57421875 32.71484375 C-57.44671604 38.86150498 -58.98387941 44.74041228 -58.99047852 52.54614258 C-59.00313751 53.67158478 -59.00313751 53.67158478 -59.01605225 54.81976318 C-59.04169714 57.28219277 -59.05393565 59.74450293 -59.06640625 62.20703125 C-59.0825887 63.92242879 -59.09976948 65.63781718 -59.11790466 67.35319519 C-59.16347836 71.85557844 -59.1983512 76.35797397 -59.23010254 80.86047363 C-59.28209927 88.08482931 -59.34696528 95.30905147 -59.41831779 102.53323936 C-59.4412057 105.05989244 -59.45743565 107.58652823 -59.47303772 110.11323547 C-59.48643673 111.650769 -59.50005085 113.18830068 -59.51391602 114.72583008 C-59.51783607 115.78630806 -59.51783607 115.78630806 -59.52183533 116.86820984 C-59.57385615 121.69885615 -59.57385615 121.69885615 -60.6875 122.8125 C-63.12410446 122.91332764 -65.53174701 122.95222603 -67.96875 122.9453125 C-68.69743286 122.94626923 -69.42611572 122.94722595 -70.17687988 122.94821167 C-71.7202971 122.94889335 -73.26371717 122.94703988 -74.80712891 122.94287109 C-77.177474 122.93752262 -79.54762959 122.94281642 -81.91796875 122.94921875 C-83.41406292 122.94855797 -84.91015697 122.9472768 -86.40625 122.9453125 C-87.47655457 122.94834885 -87.47655457 122.94834885 -88.56848145 122.95144653 C-93.57254809 122.92745191 -93.57254809 122.92745191 -94.6875 121.8125 C-94.78347204 120.21827964 -94.80937924 118.6197955 -94.80775452 117.02268982 C-94.80912918 115.98637421 -94.81050385 114.95005859 -94.81192017 113.88233948 C-94.80832489 112.73579391 -94.80472961 111.58924835 -94.80102539 110.40795898 C-94.80117142 109.20812378 -94.80131744 108.00828857 -94.8014679 106.77209473 C-94.80088894 103.47264809 -94.79585978 100.17326336 -94.78889394 96.8738277 C-94.78265973 93.42915703 -94.78205655 89.98448562 -94.78086853 86.53981018 C-94.77775541 80.0126727 -94.76954229 73.48555189 -94.75951904 66.95842177 C-94.7483573 59.52927984 -94.7428473 52.10013714 -94.73782361 44.67098892 C-94.72735966 29.38481628 -94.7097606 14.09866028 -94.6875 -1.1875 C-90.00610746 -1.21215288 -85.32475241 -1.23033739 -80.64331055 -1.24243164 C-79.04955386 -1.24747157 -77.45580181 -1.2543035 -75.86206055 -1.26293945 C-73.57599747 -1.27501999 -71.28999533 -1.28073155 -69.00390625 -1.28515625 C-68.28723282 -1.29031754 -67.57055939 -1.29547882 -66.83216858 -1.30079651 C-65.11686328 -1.30099263 -63.40168734 -1.24942007 -61.6875 -1.1875 C-59.69133446 0.80866554 -60.27766573 4.62951963 -60.125 7.375 C-60.08181641 8.08591797 -60.03863281 8.79683594 -59.99414062 9.52929688 C-59.88778223 11.29011912 -59.78711154 13.0512832 -59.6875 14.8125 C-59.26339844 14.30460937 -58.83929687 13.79671875 -58.40234375 13.2734375 C-43.12297673 -4.65883061 -22.1967815 -11.34757742 0 0 Z " fill="#112A37" transform="translate(799.6875,449.1875)"/>
<path d="M0 0 C0.73541016 0.00202423 1.47082031 0.00404846 2.22851562 0.00613403 C2.97939453 0.00517731 3.73027344 0.00422058 4.50390625 0.00323486 C6.09440189 0.00255315 7.6849003 0.00440682 9.27539062 0.00857544 C11.71816217 0.01392386 14.16074984 0.00863019 16.60351562 0.00222778 C18.1451827 0.00288857 19.68684966 0.00416973 21.22851562 0.00613403 C21.96392578 0.0041098 22.69933594 0.00208557 23.45703125 0 C28.61356402 0.02399493 28.61356402 0.02399493 29.72851562 1.13894653 C29.81635104 3.35749918 29.83546171 5.5788315 29.82617188 7.79910278 C29.82475693 8.46356918 29.82334198 9.12803558 29.82188416 9.81263733 C29.81627081 11.94228552 29.80371616 14.07182993 29.79101562 16.20144653 C29.78600234 17.64220023 29.78143914 19.08295556 29.77734375 20.52371216 C29.76629707 24.06215755 29.74902354 27.60054192 29.72851562 31.13894653 C31.03840454 31.13109131 31.03840454 31.13109131 32.37475586 31.12307739 C35.60440835 31.10606902 38.83403808 31.09351284 42.0637207 31.08401489 C43.46346791 31.07897574 44.86320983 31.07214437 46.26293945 31.06350708 C48.27097339 31.05142334 50.2790452 31.04624847 52.28710938 31.04129028 C54.10166626 31.03343506 54.10166626 31.03343506 55.95288086 31.02542114 C58.72851562 31.13894653 58.72851562 31.13894653 59.72851562 32.13894653 C59.82823348 34.05352935 59.85932151 35.9717697 59.86132812 37.88894653 C59.86261719 39.05425903 59.86390625 40.21957153 59.86523438 41.42019653 C59.86136719 42.64738403 59.8575 43.87457153 59.85351562 45.13894653 C59.85738281 46.36613403 59.86125 47.59332153 59.86523438 48.85769653 C59.86394531 50.02300903 59.86265625 51.18832153 59.86132812 52.38894653 C59.8602002 53.46660278 59.85907227 54.54425903 59.85791016 55.65457153 C59.72851562 58.13894653 59.72851562 58.13894653 58.72851562 59.13894653 C56.58292736 59.22670258 54.43447141 59.24589872 52.28710938 59.23660278 C50.98193359 59.23338013 49.67675781 59.23015747 48.33203125 59.22683716 C46.94335873 59.21848054 45.55468685 59.21001558 44.16601562 59.20144653 C42.77343907 59.19643319 41.38086081 59.19187 39.98828125 59.18777466 C36.56831692 59.17594087 33.14843718 59.15945533 29.72851562 59.13894653 C29.78990076 66.71092145 29.86713118 74.28259684 29.96423054 81.85419559 C30.00883469 85.37055706 30.04811201 88.88680534 30.07495117 92.40335083 C30.10609206 96.45222754 30.16087662 100.50049192 30.21679688 104.54910278 C30.2231868 105.80352676 30.22957672 107.05795074 30.23616028 108.35038757 C30.34166568 114.64364649 30.50328515 119.64592182 33.72851562 125.13894653 C36.18972404 126.36955074 37.98628428 126.34471884 40.73632812 126.45535278 C41.72246094 126.49724731 42.70859375 126.53914185 43.72460938 126.58230591 C44.75714844 126.62162231 45.7896875 126.66093872 46.85351562 126.70144653 C48.41392578 126.76622192 48.41392578 126.76622192 50.00585938 126.83230591 C52.57994091 126.93857533 55.15412071 127.04061236 57.72851562 127.13894653 C58.55939905 130.68908482 58.79882648 133.80304021 58.60742188 137.43972778 C58.53491211 138.90442505 58.53491211 138.90442505 58.4609375 140.39871216 C58.37682617 141.90981567 58.37682617 141.90981567 58.29101562 143.45144653 C58.23880859 144.47818481 58.18660156 145.5049231 58.1328125 146.56277466 C58.00358896 149.0885074 57.86864272 151.61379914 57.72851562 154.13894653 C42.55566426 158.52449773 26.41972151 161.14313485 11.62304688 154.14285278 C2.44986659 149.01509823 -2.61083846 141.82588067 -5.48620605 131.87030029 C-6.89004151 125.19979053 -6.76112136 118.55200431 -6.66210938 111.77566528 C-6.65462711 110.24725595 -6.6489436 108.71883688 -6.6449585 107.19041443 C-6.6298579 103.21350506 -6.59071602 99.23720217 -6.54614258 95.26052856 C-6.50484856 91.18427733 -6.48687546 87.10792582 -6.46679688 83.03152466 C-6.42420202 75.06705702 -6.35614637 67.10307771 -6.27148438 59.13894653 C-6.9023999 59.14418335 -7.53331543 59.14942017 -8.18334961 59.15481567 C-11.02521785 59.1755248 -13.86707025 59.18858719 -16.70898438 59.20144653 C-18.19881836 59.21401489 -18.19881836 59.21401489 -19.71875 59.22683716 C-20.66298828 59.23005981 -21.60722656 59.23328247 -22.58007812 59.23660278 C-23.45462646 59.2418396 -24.3291748 59.24707642 -25.23022461 59.25247192 C-27.27148438 59.13894653 -27.27148438 59.13894653 -28.27148438 58.13894653 C-28.3591555 56.06632577 -28.37844311 53.99074359 -28.36914062 51.91629028 C-28.36591797 50.65623169 -28.36269531 49.3961731 -28.359375 48.09793091 C-28.35101841 46.75743545 -28.34255345 45.41694065 -28.33398438 44.07644653 C-28.32897098 42.73204712 -28.32440779 41.38764594 -28.3203125 40.04324341 C-28.30847934 36.7417922 -28.29054323 33.44036393 -28.27148438 30.13894653 C-21.01148438 30.13894653 -13.75148438 30.13894653 -6.27148438 30.13894653 C-6.28308594 28.0571106 -6.2946875 25.97527466 -6.30664062 23.83035278 C-6.31359173 21.82148355 -6.32050826 19.81261403 -6.32641602 17.80374146 C-6.33145517 16.40399425 -6.33828654 15.00425233 -6.34692383 13.60452271 C-6.35900757 11.59648877 -6.36418244 9.58841696 -6.36914062 7.58035278 C-6.37437744 6.37064819 -6.37961426 5.1609436 -6.38500977 3.9145813 C-6.18941557 -0.86759161 -4.28915949 0.01995877 0 0 Z " fill="#122B38" transform="translate(502.271484375,416.8610534667969)"/>
<path d="M0 0 C0.73541016 0.00202423 1.47082031 0.00404846 2.22851562 0.00613403 C2.97939453 0.00517731 3.73027344 0.00422058 4.50390625 0.00323486 C6.09440189 0.00255315 7.6849003 0.00440682 9.27539062 0.00857544 C11.71816217 0.01392386 14.16074984 0.00863019 16.60351562 0.00222778 C18.1451827 0.00288857 19.68684966 0.00416973 21.22851562 0.00613403 C21.96392578 0.0041098 22.69933594 0.00208557 23.45703125 0 C28.61356402 0.02399493 28.61356402 0.02399493 29.72851562 1.13894653 C29.81635104 3.35749918 29.83546171 5.5788315 29.82617188 7.79910278 C29.82475693 8.46356918 29.82334198 9.12803558 29.82188416 9.81263733 C29.81627081 11.94228552 29.80371616 14.07182993 29.79101562 16.20144653 C29.78600234 17.64220023 29.78143914 19.08295556 29.77734375 20.52371216 C29.76714639 24.06219612 29.74757393 27.60045466 29.72851562 31.13894653 C39.29851562 31.13894653 48.86851562 31.13894653 58.72851562 31.13894653 C58.74914062 35.57332153 58.76976562 40.00769653 58.79101562 44.57644653 C58.80011963 45.97693237 58.80922363 47.37741821 58.81860352 48.82034302 C58.82110107 49.91419312 58.82359863 51.00804321 58.82617188 52.13504028 C58.83140869 53.26095581 58.83664551 54.38687134 58.84204102 55.54690552 C58.72851562 58.13894653 58.72851562 58.13894653 57.72851562 59.13894653 C55.65589486 59.22661766 53.58031268 59.24590526 51.50585938 59.23660278 C50.24580078 59.23338013 48.98574219 59.23015747 47.6875 59.22683716 C46.34700454 59.21848057 45.00650975 59.21001561 43.66601562 59.20144653 C42.32161621 59.19643313 40.97721503 59.19186995 39.6328125 59.18777466 C36.33133622 59.17594141 33.02994759 59.15945624 29.72851562 59.13894653 C29.78979679 67.00623882 29.86695304 74.8732023 29.96423054 82.7401228 C30.00890781 86.39330516 30.0481694 90.04637669 30.07495117 93.69973755 C30.10101108 97.22720832 30.14143155 100.75425199 30.19170189 104.2814579 C30.21644139 106.27822332 30.22640861 108.27515409 30.23616028 110.27204895 C30.26585152 112.10338127 30.26585152 112.10338127 30.29614258 113.97171021 C30.31279716 115.58054329 30.31279716 115.58054329 30.32978821 117.22187805 C30.78398609 120.54476552 31.75458504 122.44970761 33.72851562 125.13894653 C36.28574792 126.41756268 38.09588665 126.25231263 40.95507812 126.23660278 C42.34847412 126.23285645 42.34847412 126.23285645 43.77001953 126.22903442 C44.95257324 126.21993042 46.13512695 126.21082642 47.35351562 126.20144653 C51.10726562 126.18082153 54.86101562 126.16019653 58.72851562 126.13894653 C58.72851562 135.37894653 58.72851562 144.61894653 58.72851562 154.13894653 C46.3360656 159.09592654 29.26230185 160.84653766 16.41601562 156.38894653 C5.65719615 151.61461678 -0.88238848 144.57767663 -5.24594116 133.69888306 C-7.18790514 126.9578034 -6.88071313 120.16492732 -6.75976562 113.21707153 C-6.75041686 111.61997597 -6.74331053 110.02286588 -6.73832703 108.42575073 C-6.71941901 104.26291913 -6.67046331 100.10098784 -6.61480713 95.93850708 C-6.56326028 91.67471489 -6.54073809 87.41077434 -6.515625 83.14675903 C-6.46232403 74.81036638 -6.37452622 66.47487286 -6.27148438 58.13894653 C-13.20148437 58.13894653 -20.13148438 58.13894653 -27.27148438 58.13894653 C-27.27148438 48.89894653 -27.27148438 39.65894653 -27.27148438 30.13894653 C-20.34148438 30.13894653 -13.41148437 30.13894653 -6.27148438 30.13894653 C-6.28308594 28.0571106 -6.2946875 25.97527466 -6.30664062 23.83035278 C-6.31359173 21.82148355 -6.32050826 19.81261403 -6.32641602 17.80374146 C-6.33145517 16.40399425 -6.33828654 15.00425233 -6.34692383 13.60452271 C-6.35900757 11.59648877 -6.36418244 9.58841696 -6.36914062 7.58035278 C-6.37437744 6.37064819 -6.37961426 5.1609436 -6.38500977 3.9145813 C-6.18941557 -0.86759161 -4.28915949 0.01995877 0 0 Z " fill="#122B39" transform="translate(860.271484375,416.8610534667969)"/>
<path d="M0 0 C1 1 1 1 1.11352539 3.77563477 C1.10567017 5.59019165 1.10567017 5.59019165 1.09765625 7.44140625 C1.09282227 9.39916992 1.09282227 9.39916992 1.08789062 11.39648438 C1.07953401 12.7851569 1.07106905 14.17382877 1.0625 15.5625 C1.05748666 16.95507656 1.05292347 18.34765481 1.04882812 19.74023438 C1.03699434 23.1601987 1.0205088 26.58007844 1 30 C-0.31613281 30.02578125 -1.63226563 30.0515625 -2.98828125 30.078125 C-14.23575917 30.39917575 -23.63101557 30.98989869 -33.375 37.125 C-39.77126579 44.13043396 -42.09161466 51.77194076 -42.20532227 61.06347656 C-42.21522186 61.76631775 -42.22512146 62.46915894 -42.23532104 63.19329834 C-42.26682784 65.50904 -42.29165049 67.82480215 -42.31640625 70.140625 C-42.33698513 71.74917118 -42.35798185 73.35771206 -42.37937927 74.96624756 C-42.43450348 79.1944957 -42.48395521 83.42279186 -42.53222656 87.65112305 C-42.59135743 92.72731769 -42.65753219 97.80342481 -42.72252655 102.87954712 C-42.82041461 110.58631117 -42.90935366 118.29313204 -43 126 C-54.55 126 -66.1 126 -78 126 C-78 85.08 -78 44.16 -78 2 C-67.44 2 -56.88 2 -46 2 C-43.14206684 4.85793316 -43.59200059 7.14665584 -43.375 11.125 C-43.30023438 12.40632813 -43.22546875 13.68765625 -43.1484375 15.0078125 C-43.09945312 15.99523437 -43.05046875 16.98265625 -43 18 C-42.3709375 17.33613281 -41.741875 16.67226563 -41.09375 15.98828125 C-36.11783821 10.85499875 -31.46241409 6.16054447 -25 3 C-24.04287109 2.52433594 -24.04287109 2.52433594 -23.06640625 2.0390625 C-15.79281629 -0.95837155 -7.72504942 -0.47821734 0 0 Z " fill="#122B39" transform="translate(329,446)"/>
<path d="M0 0 C1.9375 0.6875 1.9375 0.6875 4 2 C4.75 4.625 4.75 4.625 5 7 C7.475 7.495 7.475 7.495 10 8 C9.34 6.35 8.68 4.7 8 3 C16.62655798 3 20.84493636 6.17413749 27 12 C28.05380859 12.97453125 28.05380859 12.97453125 29.12890625 13.96875 C42.16607855 27.23553981 46.50484541 44.89002861 46.34985352 62.92626953 C45.90977619 80.25375842 39.24007844 95.60692058 27 108 C13.55242951 120.07225078 -1.68629579 125.43259848 -19.5625 125.125 C-21.07553711 125.11146484 -21.07553711 125.11146484 -22.61914062 125.09765625 C-25.07968457 125.07433356 -27.53970896 125.04160763 -30 125 C-30 124.67 -30 124.34 -30 124 C-26.535 123.505 -26.535 123.505 -23 123 C-22.87625 122.4225 -22.7525 121.845 -22.625 121.25 C-21.99351176 118.97664233 -21.11141809 117.0746471 -20 115 C-20.66 114.01 -21.32 113.02 -22 112 C-21.125 108.875 -21.125 108.875 -20 106 C-20 105.67 -20 105.34 -20 105 C-20.33 105 -20.66 105 -21 105 C-21 103.02 -21 101.04 -21 99 C-19.35 99 -17.7 99 -16 99 C-18.64 98.67 -21.28 98.34 -24 98 C-24 97.67 -24 97.34 -24 97 C-23.03320312 96.85304688 -22.06640625 96.70609375 -21.0703125 96.5546875 C-10.90873565 94.86741319 -1.97193245 92.61630953 4.375 83.8125 C10.89732107 72.69490727 12.53769245 62.00087427 10.375 49.25 C8.16371164 40.94607097 3.14088308 33.75069144 -4 29 C-6.62711925 27.52253399 -9.25292988 26.25304953 -12 25 C-10.68 24.67 -9.36 24.34 -8 24 C-8.66 23.34 -9.32 22.68 -10 22 C-9.34 20.68 -8.68 19.36 -8 18 C-7.34 18 -6.68 18 -6 18 C-5.690625 17.21625 -5.38125 16.4325 -5.0625 15.625 C-4 13 -4 13 -3 11 C-0.525 11.495 -0.525 11.495 2 12 C1.67 10.02 1.34 8.04 1 6 C0.01 5.67 -0.98 5.34 -2 5 C-1.125 1.125 -1.125 1.125 0 0 Z " fill="#122B38" transform="translate(422,450)"/>
<path d="M0 0 C8.19753251 3.91214452 14.47712865 11.07346722 17.5625 19.5625 C21.42248504 30.94945587 20.27099184 42.59055143 15.5625 53.5625 C11.12787188 61.27327193 4.83259844 66.74276151 -3.52734375 69.83203125 C-11.47616489 71.8272387 -20.09382288 71.79814042 -27.41796875 67.87109375 C-36.42067778 62.03761691 -42.1500053 54.23579943 -44.4375 43.5625 C-45.21148906 30.75995968 -44.96018204 18.97911138 -36.4375 8.5625 C-26.47381798 -1.53199622 -13.65270524 -4.66503095 0 0 Z " fill="#EBE8E3" transform="translate(180.4375,475.4375)"/>
<path d="M0 0 C7.55724658 4.92920754 13.03576097 12.51034307 15.375 21.25 C17.42877224 33.35869883 16.1776166 43.7228614 10.0625 54.375 C5.20633966 60.55556771 -0.46640543 65.48880181 -8 68 C-18.59935577 68.97027706 -27.01150113 68.38211597 -36 62 C-42.60982216 56.25989128 -46.85687912 47.63691332 -48 39 C-48.80990222 27.12143411 -47.60284528 16.52335568 -40 7 C-29.04373487 -4.95895904 -14.41738264 -7.38397865 0 0 Z " fill="#ECE8E3" transform="translate(418,478)"/>
<path d="M0 0 C5.26604227 4.18912181 8.69348231 9.19866616 10.83203125 15.59375 C10.83203125 17.24375 10.83203125 18.89375 10.83203125 20.59375 C-6.98796875 20.59375 -24.80796875 20.59375 -43.16796875 20.59375 C-41.64050716 11.42898046 -38.77805221 6.27792755 -31.59375 0.29296875 C-22.07171696 -6.37705439 -9.70566765 -6.29556821 0 0 Z " fill="#EAE7E2" transform="translate(646.16796875,475.40625)"/>
<path d="M0 0 C0.73541016 0.00202423 1.47082031 0.00404846 2.22851562 0.00613403 C2.97939453 0.00517731 3.73027344 0.00422058 4.50390625 0.00323486 C6.09440189 0.00255315 7.6849003 0.00440682 9.27539062 0.00857544 C11.71816217 0.01392386 14.16074984 0.00863019 16.60351562 0.00222778 C18.1451827 0.00288857 19.68684966 0.00416973 21.22851562 0.00613403 C21.96392578 0.0041098 22.69933594 0.00208557 23.45703125 0 C28.61356402 0.02399493 28.61356402 0.02399493 29.72851562 1.13894653 C29.81635104 3.35749918 29.83546171 5.5788315 29.82617188 7.79910278 C29.82475693 8.46356918 29.82334198 9.12803558 29.82188416 9.81263733 C29.81627081 11.94228552 29.80371616 14.07182993 29.79101562 16.20144653 C29.78600234 17.64220023 29.78143914 19.08295556 29.77734375 20.52371216 C29.76629707 24.06215755 29.74902354 27.60054192 29.72851562 31.13894653 C31.03840454 31.13109131 31.03840454 31.13109131 32.37475586 31.12307739 C35.60440835 31.10606902 38.83403808 31.09351284 42.0637207 31.08401489 C43.46346791 31.07897574 44.86320983 31.07214437 46.26293945 31.06350708 C48.27097339 31.05142334 50.2790452 31.04624847 52.28710938 31.04129028 C54.10166626 31.03343506 54.10166626 31.03343506 55.95288086 31.02542114 C58.72851562 31.13894653 58.72851562 31.13894653 59.72851562 32.13894653 C60.16298966 39.17998157 59.53884605 46.14984661 58.72851562 53.13894653 C56.08851563 51.81894653 53.44851563 50.49894653 50.72851562 49.13894653 C50.72851562 46.13894653 50.72851562 43.13894653 50.72851562 40.13894653 C49.24122536 37.164366 47.51982558 35.95311364 44.72851562 34.13894653 C41.95641411 33.53474329 39.24634734 33.44553584 36.41601562 33.38894653 C32.61070312 33.26519653 32.61070312 33.26519653 28.72851562 33.13894653 C28.72851562 22.90894653 28.72851562 12.67894653 28.72851562 2.13894653 C17.83851563 2.13894653 6.94851563 2.13894653 -4.27148438 2.13894653 C-4.2318892 11.30877563 -4.2318892 11.30877563 -4.18139648 20.47854614 C-4.17889893 21.61300171 -4.17640137 22.74745728 -4.17382812 23.91629028 C-4.1659729 25.66800537 -4.1659729 25.66800537 -4.15795898 27.45510864 C-4.27148438 30.13894653 -4.27148438 30.13894653 -5.27148438 31.13894653 C-6.83321182 31.22580256 -8.39877782 31.24596873 -9.96289062 31.23660278 C-10.90712891 31.23338013 -11.85136719 31.23015747 -12.82421875 31.22683716 C-14.31405273 31.2142688 -14.31405273 31.2142688 -15.83398438 31.20144653 C-16.83107422 31.19693481 -17.82816406 31.1924231 -18.85546875 31.18777466 C-21.32753286 31.1759466 -23.79947955 31.15946503 -26.27148438 31.13894653 C-26.27148438 30.80894653 -26.27148438 30.47894653 -26.27148438 30.13894653 C-19.67148437 30.13894653 -13.07148438 30.13894653 -6.27148438 30.13894653 C-6.28308594 28.0571106 -6.2946875 25.97527466 -6.30664062 23.83035278 C-6.31359173 21.82148355 -6.32050826 19.81261403 -6.32641602 17.80374146 C-6.33145517 16.40399425 -6.33828654 15.00425233 -6.34692383 13.60452271 C-6.35900757 11.59648877 -6.36418244 9.58841696 -6.36914062 7.58035278 C-6.37437744 6.37064819 -6.37961426 5.1609436 -6.38500977 3.9145813 C-6.18941557 -0.86759161 -4.28915949 0.01995877 0 0 Z " fill="#0E2533" transform="translate(502.271484375,416.8610534667969)"/>
<path d="M0 0 C0 4.95 0 9.9 0 15 C0.66 15 1.32 15 2 15 C2 15.66 2 16.32 2 17 C-4.93 17 -11.86 17 -19 17 C-19 26.24 -19 35.48 -19 45 C-12.07 45 -5.14 45 2 45 C2 45.33 2 45.66 2 46 C-1.45745022 46.22527296 -4.91587025 46.42733544 -8.375 46.625 C-9.85226562 46.72167969 -9.85226562 46.72167969 -11.359375 46.8203125 C-12.30039062 46.871875 -13.24140625 46.9234375 -14.2109375 46.9765625 C-15.08024902 47.02893066 -15.94956055 47.08129883 -16.84521484 47.13525391 C-19 47 -19 47 -21 45 C-22.35567438 39.53385138 -22.2192153 33.91146798 -22.25 28.3125 C-22.270625 27.36310547 -22.29125 26.41371094 -22.3125 25.43554688 C-22.31765625 24.52482422 -22.3228125 23.61410156 -22.328125 22.67578125 C-22.3374707 21.84989502 -22.34681641 21.02400879 -22.35644531 20.1730957 C-21.91656942 17.49135921 -21.12403886 16.64253886 -19 15 C-16.73828125 14.26953125 -16.73828125 14.26953125 -14.3125 13.8125 C-13.50425781 13.65394531 -12.69601562 13.49539063 -11.86328125 13.33203125 C-10.94095703 13.16767578 -10.94095703 13.16767578 -10 13 C-10.66 12.34 -11.32 11.68 -12 11 C-13.24193548 6.48387097 -13.24193548 6.48387097 -12 4 C-10.02 4 -8.04 4 -6 4 C-6 3.34 -6 2.68 -6 2 C-1.125 0 -1.125 0 0 0 Z " fill="#EAE7E1" transform="translate(852,430)"/>
<path d="M0 0 C0.33 0 0.66 0 1 0 C1.33 37.95 1.66 75.9 2 115 C3.24546405 112.50907189 2.7767578 111.58919267 2 109 C2.66 109 3.32 109 4 109 C4 108.01 4 107.02 4 106 C4.33 105.01 4.66 104.02 5 103 C5.99 103.33 6.98 103.66 8 104 C8.6875 106.0625 8.6875 106.0625 9 108 C8.34 108 7.68 108 7 108 C7 108.99 7 109.98 7 111 C7.99 111.33 8.98 111.66 10 112 C10.8125 113.8125 10.8125 113.8125 11 116 C10.125 118.125 10.125 118.125 9 120 C8.505 120.99 8.505 120.99 8 122 C16.58 122 25.16 122 34 122 C34 122.33 34 122.66 34 123 C22.78 123 11.56 123 0 123 C0 82.41 0 41.82 0 0 Z " fill="#071219" transform="translate(251,449)"/>
<path d="M0 0 C0.73541016 0.00202423 1.47082031 0.00404846 2.22851562 0.00613403 C2.97939453 0.00517731 3.73027344 0.00422058 4.50390625 0.00323486 C6.09440189 0.00255315 7.6849003 0.00440682 9.27539062 0.00857544 C11.71816217 0.01392386 14.16074984 0.00863019 16.60351562 0.00222778 C18.1451827 0.00288857 19.68684966 0.00416973 21.22851562 0.00613403 C21.96392578 0.0041098 22.69933594 0.00208557 23.45703125 0 C28.61356402 0.02399493 28.61356402 0.02399493 29.72851562 1.13894653 C29.81635104 3.35749918 29.83546171 5.5788315 29.82617188 7.79910278 C29.82475693 8.46356918 29.82334198 9.12803558 29.82188416 9.81263733 C29.81627081 11.94228552 29.80371616 14.07182993 29.79101562 16.20144653 C29.78600234 17.64220023 29.78143914 19.08295556 29.77734375 20.52371216 C29.76629707 24.06215755 29.74902354 27.60054192 29.72851562 31.13894653 C29.39851562 31.13894653 29.06851563 31.13894653 28.72851562 31.13894653 C28.72851562 21.56894653 28.72851562 11.99894653 28.72851562 2.13894653 C17.83851563 2.13894653 6.94851563 2.13894653 -4.27148438 2.13894653 C-4.2318892 11.30877563 -4.2318892 11.30877563 -4.18139648 20.47854614 C-4.17889893 21.61300171 -4.17640137 22.74745728 -4.17382812 23.91629028 C-4.1659729 25.66800537 -4.1659729 25.66800537 -4.15795898 27.45510864 C-4.27148438 30.13894653 -4.27148438 30.13894653 -5.27148438 31.13894653 C-6.83321182 31.22580256 -8.39877782 31.24596873 -9.96289062 31.23660278 C-10.90712891 31.23338013 -11.85136719 31.23015747 -12.82421875 31.22683716 C-14.31405273 31.2142688 -14.31405273 31.2142688 -15.83398438 31.20144653 C-16.83107422 31.19693481 -17.82816406 31.1924231 -18.85546875 31.18777466 C-21.32753286 31.1759466 -23.79947955 31.15946503 -26.27148438 31.13894653 C-26.27148438 30.80894653 -26.27148438 30.47894653 -26.27148438 30.13894653 C-19.67148437 30.13894653 -13.07148438 30.13894653 -6.27148438 30.13894653 C-6.28308594 28.0571106 -6.2946875 25.97527466 -6.30664062 23.83035278 C-6.31359173 21.82148355 -6.32050826 19.81261403 -6.32641602 17.80374146 C-6.33145517 16.40399425 -6.33828654 15.00425233 -6.34692383 13.60452271 C-6.35900757 11.59648877 -6.36418244 9.58841696 -6.36914062 7.58035278 C-6.37437744 6.37064819 -6.37961426 5.1609436 -6.38500977 3.9145813 C-6.18941557 -0.86759161 -4.28915949 0.01995877 0 0 Z " fill="#0B161E" transform="translate(502.271484375,416.8610534667969)"/>
<path d="M0 0 C0 8.91 0 17.82 0 27 C-9.57 27 -19.14 27 -29 27 C-29 26.67 -29 26.34 -29 26 C-19.76 26 -10.52 26 -1 26 C-1.33 21.05 -1.66 16.1 -2 11 C-2.66 11 -3.32 11 -4 11 C-4.33 10.34 -4.66 9.68 -5 9 C-6.98 9.99 -8.96 10.98 -11 12 C-11.12375 11.4225 -11.2475 10.845 -11.375 10.25 C-11.91843033 7.96439949 -11.91843033 7.96439949 -13.125 5.9375 C-14 4 -14 4 -13 1 C-11.02087544 0.83283412 -9.04169915 0.66628044 -7.0625 0.5 C-5.40927734 0.36078125 -5.40927734 0.36078125 -3.72265625 0.21875 C-1 0 -1 0 0 0 Z " fill="#0D1F2B" transform="translate(919,448)"/>
<path d="M0 0 C1.40668945 0.01450195 1.40668945 0.01450195 2.84179688 0.02929688 C3.81826172 0.05443359 4.79472656 0.07957031 5.80078125 0.10546875 C6.78884766 0.11900391 7.77691406 0.13253906 8.79492188 0.14648438 C11.23492356 0.18184672 13.67382844 0.23119842 16.11328125 0.29296875 C16.11328125 0.95296875 16.11328125 1.61296875 16.11328125 2.29296875 C9.18328125 2.29296875 2.25328125 2.29296875 -4.88671875 2.29296875 C-4.88671875 11.53296875 -4.88671875 20.77296875 -4.88671875 30.29296875 C2.04328125 30.29296875 8.97328125 30.29296875 16.11328125 30.29296875 C16.11328125 30.62296875 16.11328125 30.95296875 16.11328125 31.29296875 C12.65583103 31.51824171 9.197411 31.72030419 5.73828125 31.91796875 C4.26101563 32.01464844 4.26101563 32.01464844 2.75390625 32.11328125 C1.81289063 32.16484375 0.871875 32.21640625 -0.09765625 32.26953125 C-0.96696777 32.32189941 -1.8362793 32.37426758 -2.73193359 32.42822266 C-4.88671875 32.29296875 -4.88671875 32.29296875 -6.88671875 30.29296875 C-8.24239313 24.82682013 -8.10593405 19.20443673 -8.13671875 13.60546875 C-8.15734375 12.65607422 -8.17796875 11.70667969 -8.19921875 10.72851562 C-8.204375 9.81779297 -8.20953125 8.90707031 -8.21484375 7.96875 C-8.22418945 7.14286377 -8.23353516 6.31697754 -8.24316406 5.46606445 C-7.88671875 3.29296875 -7.88671875 3.29296875 -6.67163086 1.51904297 C-4.31786147 -0.09778508 -2.84078844 -0.0516507 0 0 Z " fill="#C9CDCE" transform="translate(837.88671875,444.70703125)"/>
<path d="M0 0 C0.99 0 1.98 0 3 0 C2.34 1.32 1.68 2.64 1 4 C2.32 3.34 3.64 2.68 5 2 C7.125 6.625 7.125 6.625 6 10 C5.91708047 11.9920303 5.89261823 13.98673713 5.90234375 15.98046875 C5.90717773 17.72553711 5.90717773 17.72553711 5.91210938 19.50585938 C5.92048828 20.72080078 5.92886719 21.93574219 5.9375 23.1875 C5.94201172 24.41404297 5.94652344 25.64058594 5.95117188 26.90429688 C5.96296935 29.93624668 5.97943079 32.96809906 6 36 C5.67 36 5.34 36 5 36 C4.505 24.12 4.505 24.12 4 12 C-2.93 11.67 -9.86 11.34 -17 11 C-17 10.67 -17 10.34 -17 10 C-10.565 9.505 -10.565 9.505 -4 9 C-4 7.68 -4 6.36 -4 5 C-3.67 4.34 -3.34 3.68 -3 3 C-2.01 3 -1.02 3 0 3 C0 2.01 0 1.02 0 0 Z " fill="#122D3B" transform="translate(492,465)"/>
<path d="M0 0 C0.94875 0.86625 1.8975 1.7325 2.875 2.625 C7.21781379 6.37034249 12.02584651 9.17764329 17 12 C14 14 14 14 10 14 C9.67 15.32 9.34 16.64 9 18 C8.01 17.67 7.02 17.34 6 17 C6.226875 16.401875 6.45375 15.80375 6.6875 15.1875 C6.8421875 14.1046875 6.8421875 14.1046875 7 13 C6.01 12.01 5.02 11.02 4 10 C3.67 15.94 3.34 21.88 3 28 C2.67 28 2.34 28 2 28 C1.67 23.38 1.34 18.76 1 14 C0.67 14 0.34 14 0 14 C0 9.38 0 4.76 0 0 Z " fill="#E6E2DD" transform="translate(136,559)"/>
<path d="M0 0 C5.75 -0.125 5.75 -0.125 8 1 C9.70363822 1.22622081 11.41328701 1.40888473 13.125 1.5625 C14.03507813 1.64628906 14.94515625 1.73007812 15.8828125 1.81640625 C16.58148437 1.87699219 17.28015625 1.93757813 18 2 C18 3.65 18 5.3 18 7 C21.465 6.505 21.465 6.505 25 6 C23.63016497 9.16115776 23.0109362 9.9927092 20 12 C16.12438215 10.70812738 13.58103135 9.48183087 10.4375 6.875 C7.56488051 4.6652927 5.58460134 4.23897342 2 4 C1.01 4.495 1.01 4.495 0 5 C-2.125 4.0625 -2.125 4.0625 -4 3 C-2.68 2.34 -1.36 1.68 0 1 C0 0.67 0 0.34 0 0 Z M9 3 C10.485 3.99 10.485 3.99 12 5 C12.66 4.34 13.32 3.68 14 3 C12.35 3 10.7 3 9 3 Z " fill="#142F3D" transform="translate(768,444)"/>
<path d="M0 0 C4.48398784 -0.09903473 8.96739292 -0.17154483 13.45214844 -0.21972656 C14.97700085 -0.23981599 16.50177648 -0.26709316 18.02636719 -0.30175781 C20.22089598 -0.35039796 22.41440469 -0.37299396 24.609375 -0.390625 C25.92905273 -0.41157227 27.24873047 -0.43251953 28.60839844 -0.45410156 C32 0 32 0 34.41503906 1.82128906 C36.37954442 4.52172742 36.70075939 6.70835333 37 10 C38.32 8.68 39.64 7.36 41 6 C41.66 6.33 42.32 6.66 43 7 C41.69088122 8.50295185 40.37761608 10.00229311 39.0625 11.5 C38.33160156 12.3353125 37.60070312 13.170625 36.84765625 14.03125 C36.23792969 14.6809375 35.62820312 15.330625 35 16 C34.67 16 34.34 16 34 16 C33.67 11.71 33.34 7.42 33 3 C21.78 2.67 10.56 2.34 -1 2 C-0.67 1.34 -0.34 0.68 0 0 Z " fill="#F4F3F1" transform="translate(101,446)"/>
<path d="M0 0 C0.99 0.495 0.99 0.495 2 1 C3.18778686 6.48447671 2.98659972 11.51889044 2 17 C1.90718538 21.00134137 1.94172222 24.99825938 2 29 C2.62003906 28.9278125 3.24007812 28.855625 3.87890625 28.78125 C11.94799438 27.93558138 19.89625007 27.90157389 28 28 C27.67 28.66 27.34 29.32 27 30 C18.09 30 9.18 30 0 30 C0 20.1 0 10.2 0 0 Z " fill="#F8F7F4" transform="translate(532,418)"/>
<path d="M0 0 C2.84718954 2.50620876 4.34577489 5.29862261 6.125 8.625 C9.59893288 14.73971697 13.79012537 19.32174523 19 24 C20.32 23.34 21.64 22.68 23 22 C23.2475 22.763125 23.495 23.52625 23.75 24.3125 C26.03072591 29.21606071 30.27068734 30.74282805 35 33 C32 34 32 34 29.65234375 33.1015625 C16.46631684 25.92988168 6.06793614 15.8348944 0 2 C0 1.34 0 0.68 0 0 Z " fill="#0A141A" transform="translate(573,537)"/>
<path d="M0 0 C-1.98 1.65 -3.96 3.3 -6 5 C-5.67 5.99 -5.34 6.98 -5 8 C-5.75 11.125 -5.75 11.125 -7 14 C-7.99 14.33 -8.98 14.66 -10 15 C-10.66 14.67 -11.32 14.34 -12 14 C-11.7525 13.0409375 -11.7525 13.0409375 -11.5 12.0625 C-10.96073333 10.19173179 -10.96073333 10.19173179 -11 9 C-11.33 9 -11.66 9 -12 9 C-12 7.02 -12 5.04 -12 3 C-10.35 3 -8.7 3 -7 3 C-9.64 2.67 -12.28 2.34 -15 2 C-15 1.67 -15 1.34 -15 1 C-13.0641649 0.63684334 -11.12624752 0.28477269 -9.1875 -0.0625 C-8.10855469 -0.25972656 -7.02960938 -0.45695313 -5.91796875 -0.66015625 C-3 -1 -3 -1 0 0 Z " fill="#0E2431" transform="translate(413,546)"/>
<path d="M0 0 C13.86 0.495 13.86 0.495 28 1 C23.86195327 5.13804673 17.7669149 4.30501075 12.22460938 4.51757812 C10.47803462 4.60859923 8.73709406 4.79674533 7 5 C6.67 5.66 6.34 6.32 6 7 C5.67 5.68 5.34 4.36 5 3 C3.35 3 1.7 3 0 3 C0 2.01 0 1.02 0 0 Z " fill="#DDDFDE" transform="translate(386,574)"/>
<path d="M0 0 C10.89 0 21.78 0 33 0 C33 0.33 33 0.66 33 1 C24.42 1.33 15.84 1.66 7 2 C7 2.99 7 3.98 7 5 C5.35 5 3.7 5 2 5 C1.67 6.98 1.34 8.96 1 11 C0.67 11 0.34 11 0 11 C0 7.37 0 3.74 0 0 Z " fill="#173342" transform="translate(498,419)"/>
<path d="M0 0 C0 1.65 0 3.3 0 5 C1.32 4.67 2.64 4.34 4 4 C0.57919115 8.16446295 -3.89092312 10.46633604 -9 12 C-9.99 11.67 -10.98 11.34 -12 11 C-9.03 9.68 -6.06 8.36 -3 7 C-3.99 6.01 -4.98 5.02 -6 4 C-6.33 3.01 -6.66 2.02 -7 1 C-7.99 1.33 -8.98 1.66 -10 2 C-10 1.34 -10 0.68 -10 0 C-6.30581799 -1.231394 -3.7943739 -0.64432764 0 0 Z " fill="#10242E" transform="translate(437,559)"/>
<path d="M0 0 C2.5353647 1.05760927 3.91858351 2.42718268 5.80078125 4.41796875 C6.414375 5.05863281 7.02796875 5.69929687 7.66015625 6.359375 C8.1190625 6.85308594 8.57796875 7.34679687 9.05078125 7.85546875 C8.06078125 7.85546875 7.07078125 7.85546875 6.05078125 7.85546875 C5.24640625 7.00984375 4.44203125 6.16421875 3.61328125 5.29296875 C2.76765625 4.48859375 1.92203125 3.68421875 1.05078125 2.85546875 C-2.01653852 2.94310646 -2.76274256 3.66899256 -4.94921875 5.85546875 C-5.59689668 8.42608186 -5.59689668 8.42608186 -5.94921875 10.85546875 C-7.92921875 11.51546875 -9.90921875 12.17546875 -11.94921875 12.85546875 C-11.94921875 12.19546875 -11.94921875 11.53546875 -11.94921875 10.85546875 C-12.27921875 10.52546875 -12.60921875 10.19546875 -12.94921875 9.85546875 C-11.30368466 8.1615366 -9.64502483 6.49814252 -7.94921875 4.85546875 C-7.19318359 4.12263672 -7.19318359 4.12263672 -6.421875 3.375 C-2.50228848 -0.18554043 -2.50228848 -0.18554043 0 0 Z " fill="#0D1C25" transform="translate(666.94921875,534.14453125)"/>
<path d="M0 0 C-1.5 1.5625 -1.5 1.5625 -4 3 C-6.77437543 2.96823234 -9.25286467 2.50364148 -12 2 C-11.67 1.34 -11.34 0.68 -11 0 C-16.28 -0.33 -21.56 -0.66 -27 -1 C-27 -1.33 -27 -1.66 -27 -2 C-24.60429729 -2.1687539 -22.20846637 -2.33506836 -19.8125 -2.5 C-19.13896484 -2.54769531 -18.46542969 -2.59539063 -17.77148438 -2.64453125 C-10.85024178 -3.11720148 -6.22912733 -3.22196241 0 0 Z " fill="#F3F1ED" transform="translate(193,578)"/>
<path d="M0 0 C0.625 2.875 0.625 2.875 1 6 C0.34 6.66 -0.32 7.32 -1 8 C-1.99 7.67 -2.98 7.34 -4 7 C-4.33 7.66 -4.66 8.32 -5 9 C-11.75 8.25 -11.75 8.25 -14 6 C-12.02 6 -10.04 6 -8 6 C-8 4.68 -8 3.36 -8 2 C-2.25 0 -2.25 0 0 0 Z " fill="#0F2530" transform="translate(389,564)"/>
<path d="M0 0 C6.35050906 -0.20485513 12.98269512 -0.30265096 19 2 C19.99 3.32 20.98 4.64 22 6 C18.7 6.33 15.4 6.66 12 7 C12 5.35 12 3.7 12 2 C11.30132813 2.02320313 10.60265625 2.04640625 9.8828125 2.0703125 C8.97273437 2.08835937 8.06265625 2.10640625 7.125 2.125 C6.22007812 2.14820313 5.31515625 2.17140625 4.3828125 2.1953125 C2 2 2 2 0 0 Z " fill="#10242E" transform="translate(774,444)"/>
<path d="M0 0 C2 2 2 2 2.22705078 4.61376953 C2.21657715 5.69255371 2.20610352 6.77133789 2.1953125 7.8828125 C2.18886719 9.04941406 2.18242187 10.21601563 2.17578125 11.41796875 C2.15902344 12.64128906 2.14226562 13.86460937 2.125 15.125 C2.11597656 16.35605469 2.10695313 17.58710938 2.09765625 18.85546875 C2.07402548 21.90383815 2.04108054 24.95182382 2 28 C1.67 28 1.34 28 1 28 C0.505 16.12 0.505 16.12 0 4 C-6.93 3.67 -13.86 3.34 -21 3 C-21 2.67 -21 2.34 -21 2 C-14.07 2 -7.14 2 0 2 C0 1.34 0 0.68 0 0 Z " fill="#364952" transform="translate(496,473)"/>
<path d="M0 0 C0.33 0 0.66 0 1 0 C1.05819424 3.24992446 1.09366116 6.49971435 1.125 9.75 C1.14175781 10.67039062 1.15851563 11.59078125 1.17578125 12.5390625 C1.18222656 13.42851563 1.18867188 14.31796875 1.1953125 15.234375 C1.20578613 16.05131836 1.21625977 16.86826172 1.22705078 17.70996094 C0.97829916 20.21887518 0.25700129 21.83395625 -1 24 C-1.33 22.35 -1.66 20.7 -2 19 C-2.99 18.67 -3.98 18.34 -5 18 C-4.34 15.69 -3.68 13.38 -3 11 C-2.34 11 -1.68 11 -1 11 C-0.67 7.37 -0.34 3.74 0 0 Z " fill="#091720" transform="translate(467,501)"/>
<path d="M0 0 C0.33 0 0.66 0 1 0 C1 8.25 1 16.5 1 25 C-1.31 25.33 -3.62 25.66 -6 26 C-5.34 25.67 -4.68 25.34 -4 25 C-3.835 24.34 -3.67 23.68 -3.5 23 C-3.335 22.34 -3.17 21.68 -3 21 C-2.34 20.67 -1.68 20.34 -1 20 C-0.67 13.4 -0.34 6.8 0 0 Z " fill="#163240" transform="translate(558,545)"/>
<path d="M0 0 C1.65 1.65 3.3 3.3 5 5 C4.01 5 3.02 5 2 5 C2.99 5.66 3.98 6.32 5 7 C5 7.99 5 8.98 5 10 C4.34 10 3.68 10 3 10 C2.67 10.66 2.34 11.32 2 12 C1.67 11.01 1.34 10.02 1 9 C-1.01508358 8.26676204 -1.01508358 8.26676204 -3 8 C-2.67 6.68 -2.34 5.36 -2 4 C-1.34 4.33 -0.68 4.66 0 5 C0 4.34 0 3.68 0 3 C-0.99 2.67 -1.98 2.34 -3 2 C-2.01 2 -1.02 2 0 2 C0 1.34 0 0.68 0 0 Z " fill="#0E2531" transform="translate(377,535)"/>
<path d="M0 0 C0.99 0 1.98 0 3 0 C4 3 4 3 3 6 C1.68 6 0.36 6 -1 6 C-1 6.66 -1 7.32 -1 8 C-2.98 8.99 -2.98 8.99 -5 10 C-5.625 7.625 -5.625 7.625 -6 5 C-4.04783565 3.04783565 -2.46800047 2.15173355 0 1 C0 0.67 0 0.34 0 0 Z " fill="#17313F" transform="translate(159,445)"/>
<path d="M0 0 C0.99 0.33 1.98 0.66 3 1 C3.19601608 2.74906659 3.38147403 4.49931846 3.5625 6.25 C3.66691406 7.22453125 3.77132812 8.1990625 3.87890625 9.203125 C3.98974468 11.7631352 3.77738092 13.58148159 3 16 C3.66 16.33 4.32 16.66 5 17 C4.34 17 3.68 17 3 17 C3.33 21.29 3.66 25.58 4 30 C3.34 30 2.68 30 2 30 C1.67 22.08 1.34 14.16 1 6 C0.67 6 0.34 6 0 6 C0 4.02 0 2.04 0 0 Z " fill="#1C3441" transform="translate(101,448)"/>
<path d="M0 0 C1.9375 0.6875 1.9375 0.6875 4 2 C4.75 4.625 4.75 4.625 5 7 C4.01 7 3.02 7 2 7 C4.64 8.32 7.28 9.64 10 11 C7 12 7 12 4.95703125 11.109375 C3.89548828 10.43648437 3.89548828 10.43648437 2.8125 9.75 C2.09707031 9.31171875 1.38164062 8.8734375 0.64453125 8.421875 C0.10183594 7.95265625 -0.44085938 7.4834375 -1 7 C-1 4.37886292 -0.68707555 2.49064888 0 0 Z " fill="#0C1F29" transform="translate(509,560)"/>
<path d="M0 0 C2.1640625 0.2421875 2.1640625 0.2421875 4.625 0.875 C5.44226563 1.07867188 6.25953125 1.28234375 7.1015625 1.4921875 C8.04128906 1.74355469 8.04128906 1.74355469 9 2 C9 2.66 9 3.32 9 4 C0.42 4 -8.16 4 -17 4 C-17 3.67 -17 3.34 -17 3 C-15.94039062 2.95101562 -14.88078125 2.90203125 -13.7890625 2.8515625 C-12.40101503 2.77653291 -11.01299549 2.70098515 -9.625 2.625 C-8.57699219 2.57859375 -8.57699219 2.57859375 -7.5078125 2.53125 C-3.29814173 2.40500502 -3.29814173 2.40500502 0 0 Z " fill="#193443" transform="translate(679,513)"/>
<path d="M0 0 C0.99 0.33 1.98 0.66 3 1 C-0.96 2.98 -0.96 2.98 -5 5 C-4.67 5.99 -4.34 6.98 -4 8 C-3.34 8.33 -2.68 8.66 -2 9 C-2.99 9.99 -3.98 10.98 -5 12 C-7 11 -7 11 -8 8 C-8.66 7.34 -9.32 6.68 -10 6 C-8.70903219 5.18639005 -7.41720125 4.37414954 -6.125 3.5625 C-5.04605469 2.88380859 -5.04605469 2.88380859 -3.9453125 2.19140625 C-2 1 -2 1 0 0 Z " fill="#0D1E29" transform="translate(372,450)"/>
<path d="M0 0 C1.5 1.3125 1.5 1.3125 3 3 C3 3.99 3 4.98 3 6 C6.3 7.65 9.6 9.3 13 11 C10 12 10 12 7.3359375 10.92578125 C6.35882812 10.39339844 5.38171875 9.86101563 4.375 9.3125 C3.39273438 8.79300781 2.41046875 8.27351562 1.3984375 7.73828125 C-1 6 -1 6 -1.9609375 3.91796875 C-1.97382812 3.28503906 -1.98671875 2.65210938 -2 2 C-1.34 1.34 -0.68 0.68 0 0 Z " fill="#0C1C27" transform="translate(595,559)"/>
<path d="M0 0 C0.33 0 0.66 0 1 0 C1.33 2.31 1.66 4.62 2 7 C3.32 7.33 4.64 7.66 6 8 C5.34 8.66 4.68 9.32 4 10 C4.66 10.66 5.32 11.32 6 12 C5.38125 12.2475 4.7625 12.495 4.125 12.75 C1.54131114 14.01039254 1.54131114 14.01039254 0 18 C0 12.06 0 6.12 0 0 Z " fill="#E6E2DD" transform="translate(562,550)"/>
<path d="M0 0 C1.06927734 0.10828125 1.06927734 0.10828125 2.16015625 0.21875 C7.46793427 0.73309726 12.66791429 1.11849079 18 1 C18 1.99 18 2.98 18 4 C12.48104805 4.95154344 9.32406042 5.02821349 4 3 C3.01 3.495 3.01 3.495 2 4 C2 3.34 2 2.68 2 2 C1.34 2 0.68 2 0 2 C0 1.34 0 0.68 0 0 Z " fill="#1A3442" transform="translate(618,547)"/>
<path d="M0 0 C0.98484375 0.00902344 1.9696875 0.01804687 2.984375 0.02734375 C4.10585938 0.04474609 4.10585938 0.04474609 5.25 0.0625 C5.58 1.0525 5.91 2.0425 6.25 3.0625 C3.95858714 3.11634521 1.66681812 3.15522087 -0.625 3.1875 C-2.53925781 3.22230469 -2.53925781 3.22230469 -4.4921875 3.2578125 C-7.75 3.0625 -7.75 3.0625 -9.75 1.0625 C-6.43929162 0.06140485 -3.44915231 -0.04106134 0 0 Z " fill="#E2E3E0" transform="translate(401.75,473.9375)"/>
<path d="M0 0 C0.33 0 0.66 0 1 0 C1 6.6 1 13.2 1 20 C0.34 19.67 -0.32 19.34 -1 19 C-0.67 17.02 -0.34 15.04 0 13 C-0.66 13 -1.32 13 -2 13 C-2 12.34 -2 11.68 -2 11 C-2.66 10.67 -3.32 10.34 -4 10 C-3.01 10 -2.02 10 -1 10 C-1.020625 8.72125 -1.04125 7.4425 -1.0625 6.125 C-1.125 2.25 -1.125 2.25 0 0 Z " fill="#173443" transform="translate(328,455)"/>
<path d="M0 0 C0.66 0.33 1.32 0.66 2 1 C2 2.32 2 3.64 2 5 C6.95 5 11.9 5 17 5 C17 5.33 17 5.66 17 6 C10.07 6 3.14 6 -4 6 C-4.33 5.34 -4.66 4.68 -5 4 C-4.0409375 3.8453125 -4.0409375 3.8453125 -3.0625 3.6875 C-2.381875 3.460625 -1.70125 3.23375 -1 3 C-0.67 2.01 -0.34 1.02 0 0 Z " fill="#0D181F" transform="translate(165,569)"/>
<path d="M0 0 C0.33 0 0.66 0 1 0 C1.03738281 0.85722656 1.07476562 1.71445312 1.11328125 2.59765625 C1.48846994 9.12299688 2.08040572 14.16081144 5 20 C5 20.99 5 21.98 5 23 C4.01 22.67 3.02 22.34 2 22 C-0.66538129 14.84555549 -0.19068684 7.54272394 0 0 Z " fill="#E1E0DB" transform="translate(332,505)"/>
<path d="M0 0 C1.32 0 2.64 0 4 0 C4 0.99 4 1.98 4 3 C4.66 3.33 5.32 3.66 6 4 C4.7934375 3.9690625 4.7934375 3.9690625 3.5625 3.9375 C1.06645115 3.70366379 1.06645115 3.70366379 0 5 C1.32 5.33 2.64 5.66 4 6 C0.04 6 -3.92 6 -8 6 C-8 5.67 -8 5.34 -8 5 C-7.05125 4.690625 -6.1025 4.38125 -5.125 4.0625 C-2.13919592 3.12605258 -2.13919592 3.12605258 0 2 C0 1.34 0 0.68 0 0 Z " fill="#0A1D28" transform="translate(633,465)"/>
<path d="M0 0 C0.33 0.66 0.66 1.32 1 2 C0.01 2.495 0.01 2.495 -1 3 C-0.34 3.66 0.32 4.32 1 5 C0.67 5.66 0.34 6.32 0 7 C-0.66 7 -1.32 7 -2 7 C-2.33 7.66 -2.66 8.32 -3 9 C-3.33 8.34 -3.66 7.68 -4 7 C-5.98 7.66 -7.96 8.32 -10 9 C-6.93906776 5.06451569 -4.50884026 2.31883213 0 0 Z " fill="#0D1E29" transform="translate(301,451)"/>
<path d="M0 0 C3.80625387 3.22067635 7.54081536 6.40244797 11 10 C7.00499382 8.6302836 4.19990508 6.74277578 1 4 C1 7.3 1 10.6 1 14 C0.67 14 0.34 14 0 14 C0 9.38 0 4.76 0 0 Z " fill="#D8DDDD" transform="translate(136,559)"/>
<path d="M0 0 C0.99 0 1.98 0 3 0 C2.9375 2.25 2.9375 2.25 2 5 C-1.0698187 7.47005978 -3.99496016 9 -8 9 C-7.6875 7.0625 -7.6875 7.0625 -7 5 C-4 4 -4 4 -1 4 C-0.34 3.67 0.32 3.34 1 3 C0.67 2.01 0.34 1.02 0 0 Z " fill="#F1EFEC" transform="translate(366,448)"/>
<path d="M0 0 C1.32 0.33 2.64 0.66 4 1 C3.67 1.99 3.34 2.98 3 4 C0.23434618 4.92188461 -1.38283702 5.11785222 -4.23046875 5.09765625 C-5.03291016 5.09443359 -5.83535156 5.09121094 -6.66210938 5.08789062 C-7.49548828 5.07951172 -8.32886719 5.07113281 -9.1875 5.0625 C-10.03248047 5.05798828 -10.87746094 5.05347656 -11.74804688 5.04882812 C-13.83206155 5.03705403 -15.91603977 5.0191189 -18 5 C-18 4.67 -18 4.34 -18 4 C-12.39 4 -6.78 4 -1 4 C-0.67 2.68 -0.34 1.36 0 0 Z " fill="#BABEBE" transform="translate(412,440)"/>
<path d="M0 0 C4.72224516 1.53472968 9.35855331 3.23945126 14 5 C14 5.33 14 5.66 14 6 C12.6078125 6.1546875 12.6078125 6.1546875 11.1875 6.3125 C7.96745642 7.0070192 6.97420135 7.47740939 5 10 C5.33 8.02 5.66 6.04 6 4 C5.195625 3.71125 4.39125 3.4225 3.5625 3.125 C1 2 1 2 0 0 Z " fill="#0F1D27" transform="translate(383,541)"/>
<path d="M0 0 C0.33 0 0.66 0 1 0 C1.63449936 3.25180921 1.99682852 6.17760312 1.9375 9.5 C2.00151952 13.08509292 2.70419587 15.67950192 4 19 C1.24671902 16.62216643 0.03055089 14.48801839 -1 11 C-1.20306763 7.14171502 -1.18265922 3.69581007 0 0 Z " fill="#0C1B25" transform="translate(856,539)"/>
<path d="M0 0 C3 1 3 1 4 3 C5.32 3 6.64 3 8 3 C6.515 5.475 6.515 5.475 5 8 C4.01 7.67 3.02 7.34 2 7 C0.8125 3.4375 0.8125 3.4375 0 0 Z " fill="#0E232E" transform="translate(785,484)"/>
<path d="M0 0 C2.475 0.99 2.475 0.99 5 2 C5 2.99 5 3.98 5 5 C4.01 4.67 3.02 4.34 2 4 C1.67 4.66 1.34 5.32 1 6 C-1.5625 6.625 -1.5625 6.625 -4 7 C-3.34 5.35 -2.68 3.7 -2 2 C-1.34 2 -0.68 2 0 2 C0 1.34 0 0.68 0 0 Z " fill="#E3E1DE" transform="translate(502,563)"/>
<path d="M0 0 C1.37478516 0.01740234 1.37478516 0.01740234 2.77734375 0.03515625 C3.69644531 0.04417969 4.61554687 0.05320312 5.5625 0.0625 C6.27277344 0.07410156 6.98304688 0.08570313 7.71484375 0.09765625 C5.05169181 2.76080819 3.06140307 3.04192118 -0.64453125 3.1953125 C-1.4334375 3.18371094 -2.22234375 3.17210937 -3.03515625 3.16015625 C-3.834375 3.15113281 -4.63359375 3.14210938 -5.45703125 3.1328125 C-6.0603125 3.12121094 -6.66359375 3.10960937 -7.28515625 3.09765625 C-6.64578125 2.78828125 -6.00640625 2.47890625 -5.34765625 2.16015625 C-1.25884046 0.0537966 -1.25884046 0.0537966 0 0 Z " fill="#0D1B24" transform="translate(647.28515625,571.90234375)"/>
<path d="M0 0 C-2.31856917 1.54571278 -4.50638429 2.79618552 -7 4 C-7 4.99 -7 5.98 -7 7 C-7.99 7 -8.98 7 -10 7 C-10.33 5.68 -10.66 4.36 -11 3 C-7.14243493 0.84694043 -4.44870215 -0.39253254 0 0 Z " fill="#10212B" transform="translate(161,446)"/>
<path d="M0 0 C-0.66 1.65 -1.32 3.3 -2 5 C-2.66 4.67 -3.32 4.34 -4 4 C-4.66 4.66 -5.32 5.32 -6 6 C-6.33 4.02 -6.66 2.04 -7 0 C-4.3333581 -1.33332095 -2.83319697 -0.67102033 0 0 Z " fill="#0D232F" transform="translate(439,495)"/>
<path d="M0 0 C1.875 0.25 1.875 0.25 4 1 C5.25 3.0625 5.25 3.0625 6 5 C5.34 5.66 4.68 6.32 4 7 C3.34 7 2.68 7 2 7 C1.67 6.01 1.34 5.02 1 4 C0.67 4.99 0.34 5.98 0 7 C-0.33 6.34 -0.66 5.68 -1 5 C-0.34 4.01 0.32 3.02 1 2 C0.67 1.34 0.34 0.68 0 0 Z " fill="#19313D" transform="translate(369,486)"/>
<path d="M0 0 C3 0 3 0 5 1 C2 5 -1 9 -4 13 C-3.38876602 9.43446845 -2.40218232 6.33018302 -1 3 C-0.67 2.01 -0.34 1.02 0 0 Z " fill="#08151D" transform="translate(291,482)"/>
<path d="M0 0 C1.875 0.3125 1.875 0.3125 4 1 C4.66 1.99 5.32 2.98 6 4 C4.68 4 3.36 4 2 4 C1.67 4.99 1.34 5.98 1 7 C-0.65 7.33 -2.3 7.66 -4 8 C-3.34 7.236875 -2.68 6.47375 -2 5.6875 C0.29850538 3.15722061 0.29850538 3.15722061 0 0 Z " fill="#E4E2DC" transform="translate(453,552)"/>
<path d="M0 0 C2.89932357 2.39509338 3.50168276 4.31245243 4 8 C2.02 8.33 0.04 8.66 -2 9 C-1.67 7.35 -1.34 5.7 -1 4 C-0.34 4 0.32 4 1 4 C0.67 2.68 0.34 1.36 0 0 Z " fill="#11232D" transform="translate(225,473)"/>
<path d="M0 0 C0.33 0 0.66 0 1 0 C1 5.28 1 10.56 1 16 C-0.65 16 -2.3 16 -4 16 C-3.34 15.67 -2.68 15.34 -2 15 C-2 14.34 -2 13.68 -2 13 C-1.34 13 -0.68 13 0 13 C0 8.71 0 4.42 0 0 Z " fill="#173442" transform="translate(737,555)"/>
<path d="M0 0 C1.93719378 -0.05406122 3.87481921 -0.09282025 5.8125 -0.125 C6.89144531 -0.14820313 7.97039063 -0.17140625 9.08203125 -0.1953125 C12 0 12 0 15 2 C12.525 3.485 12.525 3.485 10 5 C9.67 4.01 9.34 3.02 9 2 C6.03 1.67 3.06 1.34 0 1 C0 0.67 0 0.34 0 0 Z " fill="#324652" transform="translate(542,544)"/>
<path d="M0 0 C0.33 0.99 0.66 1.98 1 3 C2.32 3 3.64 3 5 3 C4.40138258 5.35171131 3.73075648 7.6859378 3 10 C2.01 10.495 2.01 10.495 1 11 C0.67 7.37 0.34 3.74 0 0 Z " fill="#E5E3DD" transform="translate(286,500)"/>
<path d="M0 0 C2.875 -0.125 2.875 -0.125 6 0 C6.66 0.66 7.32 1.32 8 2 C0.78774617 5.25601751 0.78774617 5.25601751 -2.5 4.1875 C-2.995 3.795625 -3.49 3.40375 -4 3 C-2.68 2.34 -1.36 1.68 0 1 C0 0.67 0 0.34 0 0 Z " fill="#223C49" transform="translate(768,444)"/>
<path d="M0 0 C2.05078125 0.03255208 4.1015625 0.06510417 6.15234375 0.09765625 C6.15234375 0.42765625 6.15234375 0.75765625 6.15234375 1.09765625 C4.50234375 1.09765625 2.85234375 1.09765625 1.15234375 1.09765625 C2.47234375 1.75765625 3.79234375 2.41765625 5.15234375 3.09765625 C3.17234375 4.08765625 1.19234375 5.07765625 -0.84765625 6.09765625 C-0.84765625 5.10765625 -0.84765625 4.11765625 -0.84765625 3.09765625 C-1.50765625 2.43765625 -2.16765625 1.77765625 -2.84765625 1.09765625 C-1.84765625 0.09765625 -1.84765625 0.09765625 0 0 Z " fill="#F1EFED" transform="translate(623.84765625,471.90234375)"/>
<path d="M0 0 C0.66 0.33 1.32 0.66 2 1 C0.69088122 2.50295185 -0.62238392 4.00229311 -1.9375 5.5 C-2.66839844 6.3353125 -3.39929688 7.170625 -4.15234375 8.03125 C-4.76207031 8.6809375 -5.37179688 9.330625 -6 10 C-6.33 10 -6.66 10 -7 10 C-7 8.02 -7 6.04 -7 4 C-6.401875 3.896875 -5.80375 3.79375 -5.1875 3.6875 C-2.71756736 2.91123545 -1.67748765 1.92911079 0 0 Z " fill="#F0F3F3" transform="translate(142,452)"/>
<path d="M0 0 C0.66 0.33 1.32 0.66 2 1 C1.34 2.32 0.68 3.64 0 5 C-2.31 4.67 -4.62 4.34 -7 4 C-5.68 3.67 -4.36 3.34 -3 3 C-3 2.34 -3 1.68 -3 1 C-2.01 0.67 -1.02 0.34 0 0 Z " fill="#173340" transform="translate(164,568)"/>
<path d="M0 0 C0.33 0.66 0.66 1.32 1 2 C1.99 2 2.98 2 4 2 C4.33 4.97 4.66 7.94 5 11 C2.46556509 8.46556509 1.25794501 7.19324503 0 4 C0 2.68 0 1.36 0 0 Z " fill="#F1F2F0" transform="translate(138,522)"/>
<path d="M0 0 C1.32 1.32 2.64 2.64 4 4 C3.67 4.99 3.34 5.98 3 7 C2.67 6.34 2.34 5.68 2 5 C0.68 5.33 -0.64 5.66 -2 6 C-2 3 -2 3 0 0 Z " fill="#F0EFEB" transform="translate(426,487)"/>
<path d="M0 0 C1.60379341 -0.05416188 3.20811406 -0.09286638 4.8125 -0.125 C5.70582031 -0.14820313 6.59914062 -0.17140625 7.51953125 -0.1953125 C10 0 10 0 13 2 C12 3 12 3 8.9375 3.0625 C7.968125 3.041875 6.99875 3.02125 6 3 C6 2.67 6 2.34 6 2 C3.03 1.505 3.03 1.505 0 1 C0 0.67 0 0.34 0 0 Z " fill="#09161F" transform="translate(177,445)"/>
<path d="M0 0 C6.625 0.75 6.625 0.75 10 3 C5.545 3.495 5.545 3.495 1 4 C1.33 3.01 1.66 2.02 2 1 C1.34 0.67 0.68 0.34 0 0 Z " fill="#F2F1EF" transform="translate(514,572)"/>
<path d="M0 0 C0.66 0.33 1.32 0.66 2 1 C2 1.99 2 2.98 2 4 C3.94009522 5.70532323 3.94009522 5.70532323 6 7 C1.68607774 6.5206753 -0.16569547 5.2542015 -3 2 C-2.01 1.34 -1.02 0.68 0 0 Z " fill="#F2F1EF" transform="translate(386,537)"/>
<path d="M0 0 C0.268125 0.639375 0.53625 1.27875 0.8125 1.9375 C1.88667752 4.33131686 1.88667752 4.33131686 5 5 C2.29120665 6.35439668 -0.00933268 6.06501451 -3 6 C-3.33 4.68 -3.66 3.36 -4 2 C-2.68 2.33 -1.36 2.66 0 3 C0 2.01 0 1.02 0 0 Z " fill="#1B3542" transform="translate(410,469)"/>
<path d="M0 0 C-0.99 0.495 -0.99 0.495 -2 1 C-2.33 1.99 -2.66 2.98 -3 4 C-3.33 3.67 -3.66 3.34 -4 3 C-5.34747084 2.76924918 -6.70377565 2.58846937 -8.0625 2.4375 C-9.361875 2.293125 -10.66125 2.14875 -12 2 C-12 1.67 -12 1.34 -12 1 C-7.9472484 0.01751476 -4.16138263 -0.08159574 0 0 Z " fill="#061621" transform="translate(643,548)"/>
<path d="M0 0 C0.99 0.33 1.98 0.66 3 1 C0.22719294 4.08089673 -2.06326356 5.68775452 -6 7 C-4.61990379 3.66476748 -3.15049348 1.81392049 0 0 Z " fill="#F2F1F0" transform="translate(616,475)"/>
<path d="M0 0 C1 2 2 4 3 6 C1.35 6 -0.3 6 -2 6 C-2 5.34 -2 4.68 -2 4 C-2.66 3.67 -3.32 3.34 -4 3 C-2.68 2.01 -1.36 1.02 0 0 Z " fill="#0B222C" transform="translate(148,450)"/>
<path d="M0 0 C2 1 2 1 2.75 3.1875 C3.05194616 6.58439429 2.24302818 8.85586991 1 12 C0.67 12 0.34 12 0 12 C0 8.04 0 4.08 0 0 Z " fill="#E9E2DB" transform="translate(287,524)"/>
<path d="M0 0 C2.5986701 2.5986701 2.63249261 4.39842758 3 8 C2.67 8.99 2.34 9.98 2 11 C1.34 11 0.68 11 0 11 C0 7.37 0 3.74 0 0 Z " fill="#E9E2DA" transform="translate(287,512)"/>
<path d="M0 0 C0.556875 0.28875 1.11375 0.5775 1.6875 0.875 C4.08494645 2.0413253 6.51596939 3.0339881 9 4 C8.67 4.99 8.34 5.98 8 7 C4.2047869 5.50902342 2.38957269 3.24299151 0 0 Z " fill="#202E35" transform="translate(185,478)"/>
<path d="M0 0 C0.99 0.33 1.98 0.66 3 1 C0.6875 3.5 0.6875 3.5 -2 6 C-2.99 6 -3.98 6 -5 6 C-3.4198632 3.84526801 -1.89353366 1.89353366 0 0 Z " fill="#EFEEEB" transform="translate(298,449)"/>
<path d="M0 0 C0.33 0.66 0.66 1.32 1 2 C1.66 2 2.32 2 3 2 C3 2.99 3 3.98 3 5 C0.03 4.505 0.03 4.505 -3 4 C-3.33 3.01 -3.66 2.02 -4 1 C-2.68 0.67 -1.36 0.34 0 0 Z " fill="#E3E0DE" transform="translate(647,442)"/>
<path d="M0 0 C1.65 0.33 3.3 0.66 5 1 C4.34 2.32 3.68 3.64 3 5 C0.525 4.01 0.525 4.01 -2 3 C-1.34 2.01 -0.68 1.02 0 0 Z " fill="#E1DFDB" transform="translate(541,574)"/>
<path d="M0 0 C0.99 0 1.98 0 3 0 C2.34 2.97 1.68 5.94 1 9 C-1.08954032 4.82091936 -1.16552619 4.19589427 0 0 Z " fill="#E2E1DC" transform="translate(288,493)"/>
<path d="M0 0 C0.99 0.33 1.98 0.66 3 1 C2.01 2.32 1.02 3.64 0 5 C-1.32 4.67 -2.64 4.34 -4 4 C-2.68 2.68 -1.36 1.36 0 0 Z " fill="#E2E3E1" transform="translate(296,482)"/>
<path d="M0 0 C0.99 0 1.98 0 3 0 C2.75 1.875 2.75 1.875 2 4 C0.0625 5.1875 0.0625 5.1875 -2 6 C-2.99 6.495 -2.99 6.495 -4 7 C-2.79618552 4.50638429 -1.54571278 2.31856917 0 0 Z " fill="#0F1F27" transform="translate(351,465)"/>
<path d="M0 0 C2.875 -0.1875 2.875 -0.1875 6 0 C6.66 0.99 7.32 1.98 8 3 C4.52176885 4.15941038 2.54104422 3.70820884 -1 3 C-0.67 2.01 -0.34 1.02 0 0 Z " fill="#203743" transform="translate(165,444)"/>
<path d="M0 0 C0.66 0.66 1.32 1.32 2 2 C1.625 4.125 1.625 4.125 1 6 C-0.65 6.33 -2.3 6.66 -4 7 C-3.525625 6.21625 -3.05125 5.4325 -2.5625 4.625 C-1.66101977 3.11051322 -0.78820515 1.5764103 0 0 Z " fill="#E4E2DC" transform="translate(750,478)"/>
</svg>
